<?xml version="1.0" encoding="utf-8"?>
<!-- Generator: Adobe Illustrator 15.0.2, SVG Export Plug-In . SVG Version: 6.00 Build 0)  -->
<!DOCTYPE svg PUBLIC "-//W3C//DTD SVG 1.1//EN" "http://www.w3.org/Graphics/SVG/1.1/DTD/svg11.dtd">
<svg version="1.1" id="Ebene_1" xmlns="http://www.w3.org/2000/svg" xmlns:xlink="http://www.w3.org/1999/xlink" x="0px" y="0px"
	 width="256px" height="256px" viewBox="0 0 256 256" enable-background="new 0 0 256 256" xml:space="preserve">
<g>
	<rect fill="#FFF805" width="256" height="256"/>
	<rect x="198.4" y="89.6" fill="#F54100" width="57.6" height="25.601"/>
	<rect x="198.4" y="115.2" fill="#F57200" width="57.6" height="25.6"/>
	<rect x="198.4" y="140.8" fill="#F54100" width="57.6" height="25.601"/>
	<polygon fill="#F54100" points="0,89.6 76.801,166.4 102.4,166.4 102.4,140.8 51.201,89.6 	"/>
	<polygon fill="#F57200" points="189.44,104.96 153.601,140.8 153.601,166.4 189.44,166.4 	"/>
	<polygon fill="#F54100" points="153.601,89.6 189.44,89.6 189.44,104.96 153.601,140.8 128,115.2 	"/>
	<polygon fill="#F57200" points="0,89.6 35.841,125.44 35.841,166.4 0,166.4 	"/>
	<polygon fill="#F57200" points="102.4,89.6 76.801,89.6 76.801,115.2 128,166.4 153.601,140.8 	"/>
</g>
</svg>
